<svg xmlns="http://www.w3.org/2000/svg" width="128" height="128" viewBox="0 0 128 128" role="img" aria-label="BDD Guardian">
  <!-- Marketplace tile: same silhouette as media/guardian.svg (24x24) with fixed fills - ForgeOne Opcion B -->
  <defs>
    <linearGradient id="bg" x1="0" y1="0" x2="128" y2="128" gradientUnits="userSpaceOnUse">
      <stop offset="0%" stop-color="#1a2332"/>
      <stop offset="100%" stop-color="#0d1219"/>
    </linearGradient>
  </defs>
  <rect width="128" height="128" rx="22" fill="url(#bg)"/>
  <!-- Content box ~15% margin - 24 units mapped into 90x90 centered -->
  <g transform="translate(19, 19) scale(3.75)" fill="#e8eef6" stroke="#e8eef6">
    <path
      fill="none"
      stroke="#e8eef6"
      stroke-width="1.35"
      stroke-linecap="round"
      stroke-linejoin="round"
      d="M12 2.85 18.35 5.25v5.7c0 4.3-2.85 7.4-6.35 8.75-3.5-1.35-6.35-4.45-6.35-8.75v-5.7L12 2.85z"
    />
    <g fill="none" stroke="#e8eef6" stroke-linecap="round" stroke-linejoin="round">
      <circle cx="8.55" cy="12.05" r="2.05" stroke-width="1.2"/>
      <circle cx="15.45" cy="12.05" r="2.05" stroke-width="1.2"/>
      <path stroke-width="1.25" d="M10.55 12.05h2.9"/>
    </g>
    <path
      fill="#e8eef6"
      stroke="none"
      d="M12 7.05c.85 0 1.55.7 1.55 1.55 0 1.15-1.55 2.4-1.55 2.4S10.45 9.75 10.45 8.6c0-.85.7-1.55 1.55-1.55z"
    />
  </g>
</svg>
